<?xml version="1.0" encoding="UTF-8"?>
<svg id="Calque_2" data-name="Calque 2" xmlns="http://www.w3.org/2000/svg" viewBox="0 0 327 327">
  <defs>
    <style>
      .cls-1 {
        fill: #fff;
      }
    </style>
  </defs>
  <g id="Calque_1-2" data-name="Calque 1">
    <g>
      <path d="M0,2.17h324.85s-.01,324.83-.01,324.83H0V2.17ZM314.01,12.99H10.83v303.18h303.18V12.99Z"/>
      <polygon class="cls-1" points="0 2.17 0 0 327 0 327 327 324.83 327 324.85 2.15 0 2.17"/>
      <path d="M95.28,99.63l-3.76,18.5c.78,4.3,10.88,3.57,14.36,2.9l4.41-20.47,15.3-.92-9.61,54.25-14.34,1.02,2.29-20.62-13.82-.14-4.45,19.75c-2.39,3.51-16.43,3.88-15.96-2.86l9.21-49.36,16.36-2.02Z"/>
      <path d="M231.72,99.63l-2.18,21.65,14.18-2.08,3.26-19.47,15.06-.11c-1.62,8.98-5.88,53.92-12.21,56-3.37,1.11-7.98.04-11.62.3l2.18-21.65-13.94-.09-4.43,19.62-14.13,2.12,8.77-56.19,15.06-.1Z"/>
      <path d="M211.63,175.92c47.45-9.81,39.99,62.57-2.13,55.29-27.11-4.68-22.75-50.15,2.13-55.29ZM219.83,187.14c-14.6-.57-17.1,28.31-8.39,31.35,18.36,6.41,22.9-30.78,8.39-31.35Z"/>
      <path d="M205.73,101.8l-4.44,12.94c-21.24-11.05-39.59,5.72-28.13,27.18l9.46,1.12,3.63-6.57-7.79-2.09,1.39-10.81,21.54-.12-5.45,28.12c-65.02,22.49-48.84-73.45,9.77-49.76Z"/>
      <polygon points="147.26 231.72 157.15 175.32 171.09 175.4 164.59 218.71 184.08 218.72 180.82 231.72 147.26 231.72"/>
      <path d="M151.59,99.63l-9.7,54.17c-2.88,3.78-10,1.75-14.13,2.13l8.88-56.09,14.95-.21Z"/>
      <path d="M125.59,192.75c-8.81,29.89-37.29,10.03-58.45,21.63,5.2-22.45,23.24-13.07,39.86-15.34,7.03-.96,11.94-5.28,18.59-6.29Z"/>
    </g>
  </g>
</svg>