<?xml version="1.0" encoding="UTF-8"?>
<svg id="Calque_2" data-name="Calque 2" xmlns="http://www.w3.org/2000/svg" viewBox="0 0 182.2 192.27">
  <g id="Calque_1-2" data-name="Calque 1">
    <g>
      <polygon points="42.73 1.34 42.73 152.21 102.81 152.21 102.81 192.27 0 192.27 0 1.34 42.73 1.34"/>
      <polygon points="137.52 126.84 158.22 126.84 160.22 124.84 160.22 68.09 181.58 68.09 181.58 146.87 114.83 146.87 114.83 68.09 135.52 68.09 137.52 70.1 137.52 126.84"/>
      <path d="M181.58,0c-3.86,6.17,4.07,13-6.68,12.03,21.36,27.23-7.91,64.96-39.92,49.92-24.73-11.62-23.63-54.04,3.86-60.61-.57,4.54.99,10.88-.26,15.08-.76,2.55-5.87,5.59-7.11,10.24-5.93,22.29,25.18,33.55,34.82,13.47,4.14-8.62,1.76-21.92-8.75-24.1v16.02s-11.2-.17-11.2-.17c-3.31-1.24-.83-2.67-.83-3.18V0h36.05Z"/>
      <polygon points="181.58 150.88 181.58 192.27 114.16 192.27 112.16 190.26 112.16 152.21 126.84 152.21 126.84 176.24 140.19 176.24 140.19 154.88 154.88 154.88 154.88 176.24 166.9 176.24 166.9 150.88 181.58 150.88"/>
      <path d="M97.47,1.34v16.03s-10.68,0-10.68,0v43.39c2.53,3.29,7.02,1.76,10.69,2v16.03h-37.39v-16.03s9.35,0,9.35,0V17.36h-9.35s0-16.02,0-16.02h37.39Z"/>
      <path d="M63.87,85.68l5.07,10.28,23.71.26,3.67-10.58,14.49-.18-23.54,61.23-14.29-.04c-1.9-.58-2.14-2.31-2.9-3.78-8.32-16.07-12.37-38.79-20.69-55.43-.3-2.74.14-1.74,1.99-2s11.56-.34,12.49.23ZM88.12,109.5h-16.02s6.69,20.02,6.69,20.02c3.42.53,2.07-.3,2.79-1.88,2.48-5.5,3.84-12.6,6.55-18.14Z"/>
    </g>
  </g>
</svg>