<?xml version="1.0" encoding="UTF-8"?>
<svg id="Calque_2" data-name="Calque 2" xmlns="http://www.w3.org/2000/svg" viewBox="0 0 1081.32 1259.89">
  <defs>
    <style>
      .cls-1 {
        fill: #fff;
      }
    </style>
  </defs>
  <g id="Layer_1" data-name="Layer 1">
    <g>
      <path class="cls-1" d="M1081.28,0l.04,922.67c-6.03,56.39-24.11,108.37-73.07,140.74-58.52,38.68-127.66,30.34-194.27,37.56-63.01,6.83-126.64,24.32-178.69,61.12-37.12,26.24-65.61,62.24-93.19,97.79l-3-1c-46.29-64.07-99.67-113.91-176.54-138.2-67.72-21.4-123.54-19.01-192.12-25.72-101.7-9.95-162.58-69.65-170.43-172.28L.04,0h1081.24ZM1054.3,26.97H27.02l-.04,886.71c5.55,104.62,60.76,148.16,161.44,155.3,96.09,6.82,178.47,9.7,262.22,63.53,35.64,22.91,64.2,52.46,90.52,85.32,54.54-76.1,136.46-121.48,228.15-137.54,45.86-8.03,89.83-8.1,135.58-12.31,92.76-8.53,144.89-56.22,149.45-151.31l-.04-889.71Z"/>
      <path class="cls-1" d="M1027.32,425.6l1.05,7.45v469.64c-2.02,54.17-15.5,102.81-69.32,125.52-34.29,14.47-68.11,11.96-104.1,14.82-114.51,9.09-217.82,30.67-301.32,114.36-2.35,2.36-9.6,12.55-12.46,12.55-13.55-11.35-25.81-25-39.46-36.52-64.61-54.5-157.11-79.79-240.35-87.4-64.4-5.89-147.8,4.64-187.38-58.43-13.61-21.68-18.49-46.57-20.01-71.91l.04-490.08h973.32ZM359.58,488.84c-210.55,2.75-313.59,264.81-157.69,409.83,146.31,136.1,387.75,39.36,397.78-158.82,7.03-139.09-100.5-252.83-240.08-251.01ZM796.48,499.53h-131.91v451.58h272.81v-114.89h-140.9v-336.68Z"/>
      <path class="cls-1" d="M1027.32,52.95v346.67H54V52.95h973.32ZM152.73,95.21c-21.73,2.06-40.2,16.02-45.28,37.66-18.52,78.96,101.05,91.11,105.42,18.48,2.18-36.32-24.7-59.5-60.15-56.14ZM753.51,188.84c28.44-18.19,26.63-67.05-1.27-85.16-29-18.83-72.83-7.45-83.38,26.98-10.42,33.99,12.7,67.09,48.19,69.13,6.48.37,11.94-2.28,17.88.12,5.11,2.07,21.2,20.95,24.1,20.94l12.51-14.54-18.02-17.47ZM252.86,95.91h-20.99v101.9h69.95v-17.98h-48.97v-83.92ZM314.32,95.91h-23.48l36.97,64.44v38.46h19.49l1.5-1.5v-34.97c0-.66,2.08-6.2,2.61-7.39l35.37-59.05h-22.48l-25.47,40.96-21.96-39.22c-.5-.67-1.83-1.62-2.54-1.73ZM399.76,197.81h20.99v-57.95l27.44,47.03c4.87-.33,9.91,1.23,13.54-2.84l25.97-44.19v58.94h17.49c6.14,0,2.56-13.03,2.46-16.44-.79-26.61.6-55.62-2.08-81.85-.09-.93-.67-4.44-1.49-4.67-4.28.43-9.47-1.25-12.8,2.13l-37.06,62.87-1.72-1.31-36.03-62.35-14.71-1.3-1.99,101.91ZM647.59,95.91h-20.99v102.9h18.49c.33,0,1.52-1.32,2.5-1v-101.9ZM812.47,95.91h-20.99v64.44c0,44.54,71.61,53.79,86.13,15.18.99-2.63,3.81-12.92,3.81-15.18v-64.44h-20.99v64.44c0,.59-2.29,7.08-2.82,8.17-7.91,16.39-33.24,16.18-41.7.37-.94-1.76-3.45-9-3.45-10.54v-62.44ZM975.35,95.91h-69.95v101.9h69.95v-17.98h-48.97v-23.98h42.97v-18.98h-42.97v-21.98h48.97v-18.98ZM579.13,96.91c-14.34-1.7-31.78,1.26-46.47,0v101.9h18.49c4.93-4.34,1.43-10.78,1.5-15.49.06-3.95,1.84-8.95,1.11-13.38,12.32-2.1,23.7.06,35.85-4.62,16.63-6.4,21.68-23.36,19.99-39.94-1.55-15.19-15.76-26.74-30.47-28.49ZM350.57,236.06c-36.05,4.06-58.46,38.06-52.49,72.9,11.73,68.4,121.14,66.63,125.65-6.76,2.72-44.22-30.35-70.98-73.16-66.15ZM924.17,236.06c-21.8,2.61-36.93,20.46-32.31,42.74,4.61,22.23,35.01,23.87,51.5,32.43,10.07,5.22,11.87,18.21,1.39,23.33-17.27,8.44-31.01-3.3-46.72-8.68l-11.53,18.2c27.19,21.11,86.34,24.82,88.89-20.84,2.07-37.17-31.82-31.95-53.71-45.29-10.36-6.32-6.63-16.34,3.72-19.68,12.73-4.11,27.21,1.09,38.33,7.35l11.44-17.37c-12.65-11.39-34.56-14.16-51-12.2ZM136.94,236.78h-23.98v119.89h81.94v-19.48l-1.5-1.5h-56.46v-98.91ZM210.39,236.78h-27.48c-.38,1.57.42,2.35.95,3.54,4.99,11.21,42.02,65.59,42.02,70.89v45.46h24.98v-45.46l43.97-74.43h-25.48c-1.83,0-4.29,4.19-5.3,5.69-8.94,13.38-15.77,29.7-24.68,43.27l-28.98-48.96ZM530.67,313.71l-69.45-76.93h-14.49v119.89h23.98v-75.93l68.45,75.93c3.71,2.83,11.87,3.13,15.49.5v-120.39h-23.98v76.93ZM668.57,313.71l-69.45-76.93h-14.49v119.89h23.98v-75.93l68.45,75.93c2.06,3.09,15.49,2.83,15.49-.5v-118.39h-23.98v75.93ZM707.54,356.67h25.98l8.66-21.06c4.31-2.63,32.34-2.37,38.86-1.97,2.48.15,7.58.57,9.7,1.29,5.45,1.84,7.28,18.03,12.23,21.74h24.48l-50.86-118.27c-.53-.69-15.29-1.95-17.06-.09l-51.99,118.36ZM867.43,236.78h-23.98v119.89h23.98v-119.89Z"/>
      <path class="cls-1" d="M350.79,631.41c1.89-1.92-5.36-13.16-7.45-15.03-8.52-7.66-16.11-2.41-24.51,2.04-3-5.85-2.38-10.48-3.09-16.4-.24-1.98-1.58-3.76-1.77-5.33-.7-5.88,10.51-5.66,13.79-7.78,1.76-1.13,2.41-3.57,3.99-5,6.21-5.61,32.94-8.12,41.51-7.43,12.45,1.01,24.05,8.3,36.49,9.98l-4,8.97c9.17,2.02,11.74,12.22,16.55,18.93.93,1.29,8.93,9.38,8.43,10.04l-8.08,3.65c3.35,13.84-2.6,27.34-.92,41.31l-7.98-2c-.05,12.33-9.91,26.96,1.97,36.47.01,1.38-9.54,2.66-11.59,3.4-1.02.37-1.82-.48-1.27,1.48,1.74,6.19,8.17,18.46,11.37,24.62,5.04,9.7,15.49,28.76,22.51,36.44,8.08,8.83,20.33.93,18.94-9.9-6.48-16.65-18.95-32.35-24.96-49.01-15.96-44.23,42.61-52.45,68.33-71.6,4.03-4.33,5.57-9.4,3.33-15.03-5-12.57-27.78-10.2-22.15,5.16,1.06,2.9,3.63,4.81,3.47,8.02-7.99,1.23-12.02-3.02-16.47-8.74-7.43,4.08-15.27,4.78-23.51,2.75.96-8.22,4.17-17.66,13-19.99-3.77-6.12-6.96-15.6.44-19.93l12.28,9.77c11.14-.71,19.75-5.17,31.22-1.28,19.28,6.54,25.67,30.39,15.21,47.12-7.65,12.23-44.88,26.57-58.82,35.1-11.05,6.76-13.65,13.96-8.31,26.14,2.63-2.71,3.53-6.28,6.01-9.46,10.3-13.25,36.52-16.7,50.42-27.52l10.52-9.97v14.49c0,5.86-7.81,16.83-12.49,20.48-14.2,11.08-45.97,10.84-39.98,35.96,7.41-12.64,20.56-13.83,32.84-19.12l12.63-7.84c.66,8.23-1.96,18.52-8,24.46-7.05,6.93-24.17,9.23-27.14,18.82-.39,1.26-1.98,6.47.16,6.66l1.47-3.03,24.52-8.95c.91,6.46-3.13,13.6-8.63,16.83-4.64,2.73-11.5,3.04-15.83,7.15-3.82,3.62-4.88,10.52-8.98,15-8.07,8.8-21.09,10.68-32.06,7.03-2.56-.85-3.95-2.77-6.44-3.05,7.61,10.64,19.41,19.83,30.09,27.36,3.23,2.28,7.28,5.66,10.56,7.42,2.79,1.5,14.81,4.89,15.24,6.77-2.34,8.1-12.17,8.84-19.28,8.53-1.46.49-7.33,17.14-7.35,19.54-.03,3.29,5.03,8.89,5.66,12.86.82,5.19.09,10.67-1.95,15.42-3.43-2.05-2.55-7.02-7.46-7.07-10.25-.09-9.1,19.91-16.56,24.5-6.43,3.96-19.42.89-26.67,4.31-3.26.39-4.62,10.1-6.75,9.22-.61-.25-4.45-4.24-4.92-5.07-4.16-7.24,4.52-14.86,3.4-15.9-6.92.36-11.4,6.5-14.53,12.02-2.3.94-4.87-4.06-5.25-5.75-2.13-9.49,5.66-13.28,11.79-18.26-5.77-2.08-11.26.62-16.88,1.6-1.07.19-2.96,1.06-2.1-1.1,2.05-5.12,7.2-8.89,12.29-10.69,15.51-5.49,26.9,4.03,35.43-16.53,6.39-15.42,3.94-24.4-13.3-28.01-2.66,4.83-5.31,10.75-11.43,11.76-1.66-11.42-4.56-18.62-12.99-26.49-2.11-1.97-18.74-15.66-19.96-16.04-3.71-1.17-22.97,5.37-25.97,8.12-9.47,8.65,7.4,27.29,7.94,37.41-6.98,1.41-11.9-3.51-18.23-4.8l-36.13,12.69c-.19,11.66-1.8,20.71-15.58,20.09,5.05-16.43-13.39-13.92-22.68-8.18l-10.29,9.19c-2.14-7.23-.52-14.12,3.99-19.97-7.22-.92-13.2,1.17-19.98,2.98-.31-10,11.13-16.37,19.98-16.99-.35-2.28-13.1-6.71-10.99-8.97,5.9-1.56,11.31-2.62,17.53-2.05,4.13.38,6.81,2.27,10.19,2.8,5.63.89,20.12-5.79,25.92-8.58,1.85-.89,7.63-3.24,8.17-4.84,1.98-5.87-6.42-16.41-8-22.15-10.41.94-21.23,2.13-30.53-3.92-.97-.63-1.8.11-1.29-2.23,30.57-2.68,57.37-22.08,84.93-33.99-3.3-3.1-9.13-15.14-13.37-14.96-2.54.11-24.84,10.02-27.11,11.97-3.99,3.42-2.53,6.51-1.49,10.99-9.66,1.45-11.1-11.2-17.43-12.03-4.58-.6-31.03-.6-34.58.5-5.56,1.72-4.81,14.13-13.45,15.53-.4-20.18-28.83-21.07-33.48-2.99-2.32,1.77-5.52-6.04-5.76-7.75-.91-6.33,2.43-10.35,5.78-15.22-4.24-.46-8.46,1.76-12.5,2-2.85.17-1.42-4.15-.73-5.75,2.68-6.24,13.2-8.18,19.23-9.26-1.58-4.28-14.29-2.37-14.98-2.99,2.73-8.09,15.34-7.7,22.47-6.98,8.17.82,14.09,5.99,22.12,6.86,25.59,2.76,53.36-4.83,72.32-22.36l-19.65-11.27c-6.4,2.68-10.81,7.55-18.31,7.77,1.79-7.29,4.5-11.08,1.18-18.67-1.3-2.97-21.99-25.56-25.12-27.82-6.93-5-17.78,2.35-26.02.53l11.52-15.95c1.4-7.45.9-14.82-4.49-20.55l-16.02-9.44c8.45-3.7,16.57-1.65,24.97.98-.95-2.32-1.34-4.75-2.45-7.03-1.82-3.75-5.27-6.16-6.54-9.94,6.76-.85,11.5,1.75,16.01,6.46,2.2,2.3,3.57,5.61,5.97,7.52v-15.98c13.48,5.92,8.66,15.19,10.25,26.21,3.92,27.07,45.12,42.88,68.43,46.47,11.68,1.8,13.33-4.56,12.25-14.74-11.39,2.72-21.1-.6-19.98-13.99h27.98ZM352.79,591.45c-4.45.45-12.93-1.98-13.98,3.97,3.57,2.56,9.21.47,12.71-1.73,1.02-.64,1.76.06,1.27-2.25Z"/>
      <path class="cls-1" d="M343.8,627.41h-14.49c-3.43,0-14.25,5.06-19.25,5.74-8.13,1.11-19.86-.26-24.23-8.22,6.13.6,9.99,1.19,16.23.21,14.68-2.3,31.94-16.33,41.74,2.28Z"/>
      <path class="cls-1" d="M360.57,258.03c50.55-.59,51.3,79.64-1.1,78.27-48.91-1.28-48.98-77.69,1.1-78.27Z"/>
      <polygon class="cls-1" points="750.51 312.71 767.01 273.74 784.49 312.71 750.51 312.71"/>
      <path class="cls-1" d="M717.32,114.16c43.25-3.9,46.88,60.67,9.62,65.58-48.65,6.41-51.01-61.85-9.62-65.58Z"/>
      <path class="cls-1" d="M157.76,114.14c49.84-2.41,41.19,79.71-9.04,64.42-33.12-10.08-27.35-62.66,9.04-64.42Z"/>
      <path class="cls-1" d="M553.65,151.86v-36.97c13.61-.04,35.05-1.56,35.06,17.48s-21.24,17.11-35.06,19.48Z"/>
    </g>
  </g>
</svg>