<?xml version="1.0" encoding="UTF-8"?>
<svg id="Calque_2" data-name="Calque 2" xmlns="http://www.w3.org/2000/svg" viewBox="0 0 405.98 163.76">
  <defs>
    <style>
      .cls-1 {
        fill: #fff;
      }
    </style>
  </defs>
  <g id="Calque_1-2" data-name="Calque 1">
    <g>
      <path class="cls-1" d="M46.5,2.16l29,77.01L103.1,2.26l26.74.07,27.18,75.83L186,2.16h48l-58.47,160.03c-.78,1-1.87.89-2.97,1.03-6.04.72-23.08.72-29.11,0-1.1-.13-2.19-.02-2.95-1.05l-23.98-63.02-24.97,64.08-34.3-1.28L0,2.16h46.5Z"/>
      <path class="cls-1" d="M257,52.16C259.11,19.8,295.6,1.98,324.51.17c26.21-1.64,60.69,8.42,74.91,32.07,21.22,35.29-13.03,66.85-46.42,71.93v10.99h-46v-22.5c0-4.09,9.93-12.47,13.67-14.33,12.31-6.11,40.85-5.07,39.35-25.66-1.79-24.52-52.81-26.71-57.02-.52h-46Z"/>
      <path class="cls-1" d="M309.35,154.81c-10.6-11.39,2.4-24.12,14.6-26.21,13.32-2.28,35.59,6.26,28.55,22.56-6.05,14.01-33.34,14.19-43.15,3.65Z"/>
    </g>
  </g>
</svg>